<?xml version="1.0" encoding="UTF-8" standalone="no"?><svg xmlns="http://www.w3.org/2000/svg" xmlns:xlink="http://www.w3.org/1999/xlink" clip-rule="evenodd" stroke-miterlimit="10" viewBox="0 0 720 540"><desc>SVG generated by Keynote</desc><defs><pattern id="782E7A63-CD99-46BD-91CA-F3D8176DDA8C" patternUnits="userSpaceOnUse" width="8" height="8" viewBox="0 0 8 8"><image xlink:href="../../A4F4CFCC-0D9D-48B7-BD2E-F5A229841EA0/assets/B49BA0EE4CCF2F1924B9B528E7DE74AC.png" width="8.00" height="8.00"></image></pattern></defs><g transform="matrix(1.00, 0.00, -0.00, -1.00, 0.0, 540.0)"><path d="M 0.0 540.0 L 720.0 540.0 L 720.0 0.0 L 0.0 0.0 Z M 0.0 540.0 " fill="#FFFFFF"></path><path d="M 39.3 71.5 L 428.3 -1.0 L 328.2 -1.0 L 39.4 71.9 " fill="#9DCADC" fill-opacity="0.40"></path><path d="M 38.2 72.4 L 328.8 -1.0 L 267.7 -1.0 L 38.9 71.9 " fill="#000000"></path><g><clipPath id="clip0x7f99ace14dd0"><path d="M 0.0 -1.0 L 267.4 -1.0 L 0.0 84.0 Z M -0.5 -1.1 "></path></clipPath><g clip-path="url(#clip0x7f99ace14dd0)"><path d="M 0.0 0.0 L 267.4 0.0 L 267.4 84.0 L 0.0 84.0 Z M 0.0 0.0 " fill="url(#782E7A63-CD99-46BD-91CA-F3D8176DDA8C)"></path></g></g><path d="M 0.0 0.0 L 281.4 0.0 " fill="none" stroke="#5699AD" stroke-width="0.95" transform="matrix(0.95, -0.30, -0.30, -0.95, -0.7, 84.3)"></path><image xlink:href="../../68422336-31EC-413E-8313-B78DB4F06155/assets/E3BB9B359EBDA696D0AB6D0A56DE0CEC.png" width="653.00" height="88.00" transform="matrix(1.00, 0.00, -0.00, -1.00, 38.0, 445.0)"></image><text xml:space="preserve" font-family="LucidaSansUnicode,Lucida Sans Unicode" font-size="100.0" fill="#0070C0" transform="matrix(1.00, 0.00, -0.00, -1.00, 33.3, 366.2)">I</text><text xml:space="preserve" font-family="LucidaSansUnicode,Lucida Sans Unicode" font-size="100.0" fill="#0070C0" transform="matrix(1.00, 0.00, -0.00, -1.00, 62.1, 366.2)">n</text><text xml:space="preserve" font-family="LucidaSansUnicode,Lucida Sans Unicode" font-size="100.0" fill="#0070C0" transform="matrix(1.00, 0.00, -0.00, -1.00, 124.1, 366.2)">s</text><text xml:space="preserve" font-family="LucidaSansUnicode,Lucida Sans Unicode" font-size="100.0" fill="#0070C0" transform="matrix(1.00, 0.00, -0.00, -1.00, 175.0, 366.2)">t</text><text xml:space="preserve" font-family="LucidaSansUnicode,Lucida Sans Unicode" font-size="100.0" fill="#0070C0" transform="matrix(1.00, 0.00, -0.00, -1.00, 212.4, 366.2)">a</text><text xml:space="preserve" font-family="LucidaSansUnicode,Lucida Sans Unicode" font-size="100.0" fill="#0070C0" transform="matrix(1.00, 0.00, -0.00, -1.00, 267.7, 366.2)">c</text><text xml:space="preserve" font-family="LucidaSansUnicode,Lucida Sans Unicode" font-size="100.0" fill="#0070C0" transform="matrix(1.00, 0.00, -0.00, -1.00, 318.9, 366.2)">h</text><text xml:space="preserve" font-family="LucidaSansUnicode,Lucida Sans Unicode" font-size="100.0" fill="#0070C0" transform="matrix(1.00, 0.00, -0.00, -1.00, 381.0, 366.2)">e</text><text xml:space="preserve" font-family="LucidaSansUnicode,Lucida Sans Unicode" font-size="100.0" fill="#0070C0" transform="matrix(1.00, 0.00, -0.00, -1.00, 436.7, 366.2)">c</text><text xml:space="preserve" font-family="LucidaSansUnicode,Lucida Sans Unicode" font-size="100.0" fill="#0070C0" transform="matrix(1.00, 0.00, -0.00, -1.00, 487.9, 366.2)">k</text><text xml:space="preserve" font-family="LucidaSansUnicode,Lucida Sans Unicode" font-size="100.0" fill="#0070C0" transform="matrix(1.00, 0.00, -0.00, -1.00, 546.4, 366.2)">-</text><text xml:space="preserve" font-family="LucidaSansUnicode,Lucida Sans Unicode" font-size="100.0" fill="#0070C0" transform="matrix(1.00, 0.00, -0.00, -1.00, 604.2, 366.2)">i</text><text xml:space="preserve" font-family="LucidaSansUnicode,Lucida Sans Unicode" font-size="100.0" fill="#0070C0" transform="matrix(1.00, 0.00, -0.00, -1.00, 633.2, 366.2)">n</text><image xlink:href="../../68422336-31EC-413E-8313-B78DB4F06155/assets/BAA8621C2D423B94E7B5C180924F12D1.png" width="256.00" height="256.00" transform="matrix(0.73, -0.19, -0.19, -0.73, 491.8, 279.9)"></image><image xlink:href="../../68422336-31EC-413E-8313-B78DB4F06155/assets/72C2C58C3E6EFC194323B67DE3291D3C.jpeg" width="53.00" height="73.00" transform="matrix(1.49, 0.00, -0.00, -1.48, 459.0, 315.0)"></image><image xlink:href="../../68422336-31EC-413E-8313-B78DB4F06155/assets/475644CEC43FD4AA7F286ACE304EB574.png" width="267.00" height="56.00" transform="matrix(1.00, 0.00, -0.00, -1.00, 46.0, 311.0)"></image><text xml:space="preserve" font-family="LucidaSansUnicode,Lucida Sans Unicode" font-size="60.0" fill="#0070C0" transform="matrix(1.00, 0.00, -0.00, -1.00, 47.0, 263.2)">C</text><text xml:space="preserve" font-family="LucidaSansUnicode,Lucida Sans Unicode" font-size="60.0" fill="#0070C0" transform="matrix(1.00, 0.00, -0.00, -1.00, 88.5, 263.2)">h</text><text xml:space="preserve" font-family="LucidaSansUnicode,Lucida Sans Unicode" font-size="60.0" fill="#0070C0" transform="matrix(1.00, 0.00, -0.00, -1.00, 125.8, 263.2)">e</text><text xml:space="preserve" font-family="LucidaSansUnicode,Lucida Sans Unicode" font-size="60.0" fill="#0070C0" transform="matrix(1.00, 0.00, -0.00, -1.00, 159.2, 263.2)">c</text><text xml:space="preserve" font-family="LucidaSansUnicode,Lucida Sans Unicode" font-size="60.0" fill="#0070C0" transform="matrix(1.00, 0.00, -0.00, -1.00, 189.9, 263.2)">k</text><text xml:space="preserve" font-family="LucidaSansUnicode,Lucida Sans Unicode" font-size="60.0" fill="#0070C0" transform="matrix(1.00, 0.00, -0.00, -1.00, 225.0, 263.2)">-</text><text xml:space="preserve" font-family="LucidaSansUnicode,Lucida Sans Unicode" font-size="60.0" fill="#0070C0" transform="matrix(1.00, 0.00, -0.00, -1.00, 259.8, 263.2)">i</text><text xml:space="preserve" font-family="LucidaSansUnicode,Lucida Sans Unicode" font-size="60.0" fill="#0070C0" transform="matrix(1.00, 0.00, -0.00, -1.00, 277.1, 263.2)">n</text><image xlink:href="../../68422336-31EC-413E-8313-B78DB4F06155/assets/B5B6E541FD313B1DC447B370C5460013.png" width="262.00" height="64.00" transform="matrix(1.00, 0.00, -0.00, -1.00, 50.0, 223.0)"></image><text xml:space="preserve" font-family="LucidaSansUnicode,Lucida Sans Unicode" font-size="60.0" fill="#0070C0" transform="matrix(1.00, 0.00, -0.00, -1.00, 53.7, 178.1)">A</text><text xml:space="preserve" font-family="LucidaSansUnicode,Lucida Sans Unicode" font-size="60.0" fill="#0070C0" transform="matrix(1.00, 0.00, -0.00, -1.00, 95.1, 178.1)">n</text><text xml:space="preserve" font-family="LucidaSansUnicode,Lucida Sans Unicode" font-size="60.0" fill="#0070C0" transform="matrix(1.00, 0.00, -0.00, -1.00, 132.3, 178.1)">y</text><text xml:space="preserve" font-family="LucidaSansUnicode,Lucida Sans Unicode" font-size="60.0" fill="#0070C0" transform="matrix(1.00, 0.00, -0.00, -1.00, 163.7, 178.1)"> </text><text xml:space="preserve" font-family="LucidaSansUnicode,Lucida Sans Unicode" font-size="60.0" fill="#0070C0" transform="matrix(1.00, 0.00, -0.00, -1.00, 182.7, 178.1)">t</text><text xml:space="preserve" font-family="LucidaSansUnicode,Lucida Sans Unicode" font-size="60.0" fill="#0070C0" transform="matrix(1.00, 0.00, -0.00, -1.00, 205.2, 178.1)">i</text><text xml:space="preserve" font-family="LucidaSansUnicode,Lucida Sans Unicode" font-size="60.0" fill="#0070C0" transform="matrix(1.00, 0.00, -0.00, -1.00, 222.5, 178.1)">m</text><text xml:space="preserve" font-family="LucidaSansUnicode,Lucida Sans Unicode" font-size="60.0" fill="#0070C0" transform="matrix(1.00, 0.00, -0.00, -1.00, 278.5, 178.1)">e</text><image xlink:href="../../68422336-31EC-413E-8313-B78DB4F06155/assets/20E10E584580BE35534979D0F51F1EA7.png" width="308.00" height="67.00" transform="matrix(1.00, 0.00, -0.00, -1.00, 30.0, 141.0)"></image><text xml:space="preserve" font-family="LucidaSansUnicode,Lucida Sans Unicode" font-size="60.0" fill="#0070C0" transform="matrix(1.00, 0.00, -0.00, -1.00, 33.7, 93.1)">A</text><text xml:space="preserve" font-family="LucidaSansUnicode,Lucida Sans Unicode" font-size="60.0" fill="#0070C0" transform="matrix(1.00, 0.00, -0.00, -1.00, 75.1, 93.1)">n</text><text xml:space="preserve" font-family="LucidaSansUnicode,Lucida Sans Unicode" font-size="60.0" fill="#0070C0" transform="matrix(1.00, 0.00, -0.00, -1.00, 112.3, 93.1)">y</text><text xml:space="preserve" font-family="LucidaSansUnicode,Lucida Sans Unicode" font-size="60.0" fill="#0070C0" transform="matrix(1.00, 0.00, -0.00, -1.00, 143.7, 93.1)"> </text><text xml:space="preserve" font-family="LucidaSansUnicode,Lucida Sans Unicode" font-size="60.0" fill="#0070C0" transform="matrix(1.00, 0.00, -0.00, -1.00, 162.8, 93.1)">w</text><text xml:space="preserve" font-family="LucidaSansUnicode,Lucida Sans Unicode" font-size="60.0" fill="#0070C0" transform="matrix(1.00, 0.00, -0.00, -1.00, 209.0, 93.1)">h</text><text xml:space="preserve" font-family="LucidaSansUnicode,Lucida Sans Unicode" font-size="60.0" fill="#0070C0" transform="matrix(1.00, 0.00, -0.00, -1.00, 246.2, 93.1)">e</text><text xml:space="preserve" font-family="LucidaSansUnicode,Lucida Sans Unicode" font-size="60.0" fill="#0070C0" transform="matrix(1.00, 0.00, -0.00, -1.00, 279.6, 93.1)">r</text><text xml:space="preserve" font-family="LucidaSansUnicode,Lucida Sans Unicode" font-size="60.0" fill="#0070C0" transform="matrix(1.00, 0.00, -0.00, -1.00, 304.2, 93.1)">e</text></g></svg>