<?xml version="1.0" encoding="UTF-8" standalone="no"?><svg xmlns="http://www.w3.org/2000/svg" xmlns:xlink="http://www.w3.org/1999/xlink" clip-rule="evenodd" stroke-miterlimit="10" viewBox="0 0 271 60"><desc>SVG generated by Keynote</desc><defs></defs><g transform="matrix(1.00, 0.00, -0.00, -1.00, 0.0, 60.0)"><image xlink:href="475644CEC43FD4AA7F286ACE304EB574.png" width="267.00" height="56.00" transform="matrix(1.00, 0.00, -0.00, -1.00, 2.0, 58.0)"></image><text xml:space="preserve" font-family="LucidaSansUnicode,Lucida Sans Unicode" font-size="60.0" fill="#0070C0" transform="matrix(1.00, 0.00, -0.00, -1.00, 3.0, 10.2)">C</text><text xml:space="preserve" font-family="LucidaSansUnicode,Lucida Sans Unicode" font-size="60.0" fill="#0070C0" transform="matrix(1.00, 0.00, -0.00, -1.00, 44.5, 10.2)">h</text><text xml:space="preserve" font-family="LucidaSansUnicode,Lucida Sans Unicode" font-size="60.0" fill="#0070C0" transform="matrix(1.00, 0.00, -0.00, -1.00, 81.8, 10.2)">e</text><text xml:space="preserve" font-family="LucidaSansUnicode,Lucida Sans Unicode" font-size="60.0" fill="#0070C0" transform="matrix(1.00, 0.00, -0.00, -1.00, 115.2, 10.2)">c</text><text xml:space="preserve" font-family="LucidaSansUnicode,Lucida Sans Unicode" font-size="60.0" fill="#0070C0" transform="matrix(1.00, 0.00, -0.00, -1.00, 145.9, 10.2)">k</text><text xml:space="preserve" font-family="LucidaSansUnicode,Lucida Sans Unicode" font-size="60.0" fill="#0070C0" transform="matrix(1.00, 0.00, -0.00, -1.00, 181.0, 10.2)">-</text><text xml:space="preserve" font-family="LucidaSansUnicode,Lucida Sans Unicode" font-size="60.0" fill="#0070C0" transform="matrix(1.00, 0.00, -0.00, -1.00, 215.8, 10.2)">i</text><text xml:space="preserve" font-family="LucidaSansUnicode,Lucida Sans Unicode" font-size="60.0" fill="#0070C0" transform="matrix(1.00, 0.00, -0.00, -1.00, 233.1, 10.2)">n</text></g></svg>