<?xml version="1.0" encoding="UTF-8" standalone="no"?><svg xmlns="http://www.w3.org/2000/svg" xmlns:xlink="http://www.w3.org/1999/xlink" clip-rule="evenodd" stroke-miterlimit="10" viewBox="0 0 655 90"><desc>SVG generated by Keynote</desc><defs></defs><g transform="matrix(1.00, 0.00, -0.00, -1.00, 0.0, 90.0)"><image xlink:href="E3BB9B359EBDA696D0AB6D0A56DE0CEC.png" width="653.00" height="88.00" transform="matrix(1.00, 0.00, -0.00, -1.00, 1.0, 89.0)"></image><text xml:space="preserve" font-family="LucidaSansUnicode,Lucida Sans Unicode" font-size="100.0" fill="#0070C0" transform="matrix(1.00, 0.00, -0.00, -1.00, -3.7, 10.2)">I</text><text xml:space="preserve" font-family="LucidaSansUnicode,Lucida Sans Unicode" font-size="100.0" fill="#0070C0" transform="matrix(1.00, 0.00, -0.00, -1.00, 25.1, 10.2)">n</text><text xml:space="preserve" font-family="LucidaSansUnicode,Lucida Sans Unicode" font-size="100.0" fill="#0070C0" transform="matrix(1.00, 0.00, -0.00, -1.00, 87.1, 10.2)">s</text><text xml:space="preserve" font-family="LucidaSansUnicode,Lucida Sans Unicode" font-size="100.0" fill="#0070C0" transform="matrix(1.00, 0.00, -0.00, -1.00, 138.0, 10.2)">t</text><text xml:space="preserve" font-family="LucidaSansUnicode,Lucida Sans Unicode" font-size="100.0" fill="#0070C0" transform="matrix(1.00, 0.00, -0.00, -1.00, 175.4, 10.2)">a</text><text xml:space="preserve" font-family="LucidaSansUnicode,Lucida Sans Unicode" font-size="100.0" fill="#0070C0" transform="matrix(1.00, 0.00, -0.00, -1.00, 230.7, 10.2)">c</text><text xml:space="preserve" font-family="LucidaSansUnicode,Lucida Sans Unicode" font-size="100.0" fill="#0070C0" transform="matrix(1.00, 0.00, -0.00, -1.00, 281.9, 10.2)">h</text><text xml:space="preserve" font-family="LucidaSansUnicode,Lucida Sans Unicode" font-size="100.0" fill="#0070C0" transform="matrix(1.00, 0.00, -0.00, -1.00, 344.0, 10.2)">e</text><text xml:space="preserve" font-family="LucidaSansUnicode,Lucida Sans Unicode" font-size="100.0" fill="#0070C0" transform="matrix(1.00, 0.00, -0.00, -1.00, 399.7, 10.2)">c</text><text xml:space="preserve" font-family="LucidaSansUnicode,Lucida Sans Unicode" font-size="100.0" fill="#0070C0" transform="matrix(1.00, 0.00, -0.00, -1.00, 450.9, 10.2)">k</text><text xml:space="preserve" font-family="LucidaSansUnicode,Lucida Sans Unicode" font-size="100.0" fill="#0070C0" transform="matrix(1.00, 0.00, -0.00, -1.00, 509.4, 10.2)">-</text><text xml:space="preserve" font-family="LucidaSansUnicode,Lucida Sans Unicode" font-size="100.0" fill="#0070C0" transform="matrix(1.00, 0.00, -0.00, -1.00, 567.2, 10.2)">i</text><text xml:space="preserve" font-family="LucidaSansUnicode,Lucida Sans Unicode" font-size="100.0" fill="#0070C0" transform="matrix(1.00, 0.00, -0.00, -1.00, 596.2, 10.2)">n</text></g></svg>