<?xml version="1.0" encoding="UTF-8" standalone="no"?><svg xmlns="http://www.w3.org/2000/svg" xmlns:xlink="http://www.w3.org/1999/xlink" clip-rule="evenodd" stroke-miterlimit="10" viewBox="0 0 771 551"><desc>SVG generated by Keynote</desc><defs></defs><g transform="matrix(1.00, 0.00, -0.00, -1.00, 0.0, 551.0)"><image xlink:href="33D98C5E9FFDE50A7CA88318E0546D6C.png" width="644.00" height="321.00" transform="matrix(1.00, 0.00, -0.00, -1.00, 36.0, 543.0)"></image><text xml:space="preserve" font-family="LucidaSansUnicode,Lucida Sans Unicode" font-size="150.0" fill="#FF0000" transform="matrix(0.95, 0.31, 0.31, -0.95, 39.3, 229.4)">A</text><text xml:space="preserve" font-family="LucidaSansUnicode,Lucida Sans Unicode" font-size="150.0" fill="#FF0000" transform="matrix(0.95, 0.31, 0.31, -0.95, 137.6, 261.7)">n</text><text xml:space="preserve" font-family="LucidaSansUnicode,Lucida Sans Unicode" font-size="150.0" fill="#FF0000" transform="matrix(0.95, 0.31, 0.31, -0.95, 226.0, 290.8)">y</text><text xml:space="preserve" font-family="LucidaSansUnicode,Lucida Sans Unicode" font-size="150.0" fill="#FF0000" transform="matrix(0.95, 0.31, 0.31, -0.95, 300.6, 315.3)"> </text><text xml:space="preserve" font-family="LucidaSansUnicode,Lucida Sans Unicode" font-size="150.0" fill="#FF0000" transform="matrix(0.95, 0.31, 0.31, -0.95, 345.8, 330.1)">o</text><text xml:space="preserve" font-family="LucidaSansUnicode,Lucida Sans Unicode" font-size="150.0" fill="#FF0000" transform="matrix(0.95, 0.31, 0.31, -0.95, 433.3, 358.9)">n</text><text xml:space="preserve" font-family="LucidaSansUnicode,Lucida Sans Unicode" font-size="150.0" fill="#FF0000" transform="matrix(0.95, 0.31, 0.31, -0.95, 521.8, 388.0)">e</text><text xml:space="preserve" font-family="LucidaSansUnicode,Lucida Sans Unicode" font-size="150.0" fill="#FF0000" transform="matrix(0.95, 0.31, 0.31, -0.95, 601.1, 414.1)"> </text><text xml:space="preserve" font-family="LucidaSansUnicode,Lucida Sans Unicode" font-size="150.0" fill="#FF0000" transform="matrix(0.95, 0.31, 0.31, -0.95, 646.3, 429.0)">!</text><text xml:space="preserve" font-family="LucidaSansUnicode,Lucida Sans Unicode" font-size="150.0" fill="#FF0000" transform="matrix(0.95, 0.31, 0.31, -0.95, 691.6, 443.8)"> </text><image xlink:href="7F4884B483C5DF6D661E53DF25B18AEA.png" width="147.00" height="147.00" transform="matrix(1.00, 0.00, -0.00, -1.00, 347.0, 239.0)"></image><text xml:space="preserve" font-family="LucidaSansUnicode,Lucida Sans Unicode" font-size="150.0" fill="#FF0000" transform="matrix(0.95, 0.31, 0.31, -0.95, 369.8, 94.8)">!</text><text xml:space="preserve" font-family="LucidaSansUnicode,Lucida Sans Unicode" font-size="150.0" fill="#FF0000" transform="matrix(0.95, 0.31, 0.31, -0.95, 414.9, 109.7)"> </text><text xml:space="preserve" font-family="LucidaSansUnicode,Lucida Sans Unicode" font-size="150.0" fill="#FF0000" transform="matrix(0.95, 0.31, 0.31, -0.95, 460.0, 124.5)">!</text></g></svg>