<?xml version="1.0" encoding="UTF-8" standalone="no"?><svg xmlns="http://www.w3.org/2000/svg" xmlns:xlink="http://www.w3.org/1999/xlink" clip-rule="evenodd" stroke-miterlimit="10" viewBox="0 0 563 87"><desc>SVG generated by Keynote</desc><defs></defs><g transform="matrix(1.00, 0.00, -0.00, -1.00, 0.0, 87.0)"><image xlink:href="40D2C5EE207309020F2A3DF19041568C.png" width="559.00" height="84.00" transform="matrix(1.00, 0.00, -0.00, -1.00, 2.0, 86.0)"></image><text xml:space="preserve" font-family="LucidaSansUnicode,Lucida Sans Unicode" font-size="80.0" fill="#0070C0" transform="matrix(1.00, 0.00, -0.00, -1.00, 5.4, 25.4)">T</text><text xml:space="preserve" font-family="LucidaSansUnicode,Lucida Sans Unicode" font-size="80.0" fill="#0070C0" transform="matrix(1.00, 0.00, -0.00, -1.00, 56.0, 25.4)">a</text><text xml:space="preserve" font-family="LucidaSansUnicode,Lucida Sans Unicode" font-size="80.0" fill="#0070C0" transform="matrix(1.00, 0.00, -0.00, -1.00, 100.2, 25.4)">r</text><text xml:space="preserve" font-family="LucidaSansUnicode,Lucida Sans Unicode" font-size="80.0" fill="#0070C0" transform="matrix(1.00, 0.00, -0.00, -1.00, 133.0, 25.4)">g</text><text xml:space="preserve" font-family="LucidaSansUnicode,Lucida Sans Unicode" font-size="80.0" fill="#0070C0" transform="matrix(1.00, 0.00, -0.00, -1.00, 182.8, 25.4)">e</text><text xml:space="preserve" font-family="LucidaSansUnicode,Lucida Sans Unicode" font-size="80.0" fill="#0070C0" transform="matrix(1.00, 0.00, -0.00, -1.00, 227.4, 25.4)">t</text><text xml:space="preserve" font-family="LucidaSansUnicode,Lucida Sans Unicode" font-size="80.0" fill="#0070C0" transform="matrix(1.00, 0.00, -0.00, -1.00, 257.3, 25.4)"> </text><text xml:space="preserve" font-family="LucidaSansUnicode,Lucida Sans Unicode" font-size="80.0" fill="#0070C0" transform="matrix(1.00, 0.00, -0.00, -1.00, 282.6, 25.4)">G</text><text xml:space="preserve" font-family="LucidaSansUnicode,Lucida Sans Unicode" font-size="80.0" fill="#0070C0" transform="matrix(1.00, 0.00, -0.00, -1.00, 340.4, 25.4)">r</text><text xml:space="preserve" font-family="LucidaSansUnicode,Lucida Sans Unicode" font-size="80.0" fill="#0070C0" transform="matrix(1.00, 0.00, -0.00, -1.00, 373.2, 25.4)">o</text><text xml:space="preserve" font-family="LucidaSansUnicode,Lucida Sans Unicode" font-size="80.0" fill="#0070C0" transform="matrix(1.00, 0.00, -0.00, -1.00, 422.4, 25.4)">u</text><text xml:space="preserve" font-family="LucidaSansUnicode,Lucida Sans Unicode" font-size="80.0" fill="#0070C0" transform="matrix(1.00, 0.00, -0.00, -1.00, 472.0, 25.4)">p</text><text xml:space="preserve" font-family="LucidaSansUnicode,Lucida Sans Unicode" font-size="80.0" fill="#0070C0" transform="matrix(1.00, 0.00, -0.00, -1.00, 522.4, 25.4)">s</text></g></svg>