<?xml version="1.0" encoding="UTF-8" standalone="no"?><svg xmlns="http://www.w3.org/2000/svg" xmlns:xlink="http://www.w3.org/1999/xlink" clip-rule="evenodd" stroke-miterlimit="10" viewBox="0 0 576 459"><desc>SVG generated by Keynote</desc><defs></defs><g transform="matrix(1.00, 0.00, -0.00, -1.00, 0.0, 459.0)"><text xml:space="preserve" font-family="LucidaSansUnicode,Lucida Sans Unicode" font-size="200.0" fill="#FFC000" transform="matrix(1.00, 0.00, -0.00, -1.00, -7.8, 308.9)">S</text><text xml:space="preserve" font-family="LucidaSansUnicode,Lucida Sans Unicode" font-size="200.0" fill="#FFC000" transform="matrix(1.00, 0.00, -0.00, -1.00, 99.9, 308.9)">H</text><text xml:space="preserve" font-family="LucidaSansUnicode,Lucida Sans Unicode" font-size="200.0" fill="#FFC000" transform="matrix(1.00, 0.00, -0.00, -1.00, 246.8, 308.9)">O</text><text xml:space="preserve" font-family="LucidaSansUnicode,Lucida Sans Unicode" font-size="200.0" fill="#FFC000" transform="matrix(1.00, 0.00, -0.00, -1.00, 402.1, 308.9)">W</text><text xml:space="preserve" font-family="LucidaSansUnicode,Lucida Sans Unicode" font-size="200.0" fill="#FFC000" transform="matrix(1.00, 0.00, -0.00, -1.00, 573.3, 308.9)"> </text><text xml:space="preserve" font-family="LucidaSansUnicode,Lucida Sans Unicode" font-size="200.0" fill="#FFC000" transform="matrix(1.00, 0.00, -0.00, -1.00, 50.5, 1.9)">T</text><text xml:space="preserve" font-family="LucidaSansUnicode,Lucida Sans Unicode" font-size="200.0" fill="#FFC000" transform="matrix(1.00, 0.00, -0.00, -1.00, 177.0, 1.9)">I</text><text xml:space="preserve" font-family="LucidaSansUnicode,Lucida Sans Unicode" font-size="200.0" fill="#FFC000" transform="matrix(1.00, 0.00, -0.00, -1.00, 234.7, 1.9)">M</text><text xml:space="preserve" font-family="LucidaSansUnicode,Lucida Sans Unicode" font-size="200.0" fill="#FFC000" transform="matrix(1.00, 0.00, -0.00, -1.00, 407.0, 1.9)">E</text></g></svg>