<?xml version="1.0" encoding="UTF-8" standalone="no"?><svg xmlns="http://www.w3.org/2000/svg" xmlns:xlink="http://www.w3.org/1999/xlink" clip-rule="evenodd" stroke-miterlimit="10" viewBox="0 0 720 540"><desc>SVG generated by Keynote</desc><defs><pattern id="C84604C9-24AE-4F3B-884C-1D82F9577517" patternUnits="userSpaceOnUse" width="8" height="8" viewBox="0 0 8 8"><image xlink:href="../../A4F4CFCC-0D9D-48B7-BD2E-F5A229841EA0/assets/B49BA0EE4CCF2F1924B9B528E7DE74AC.png" width="8.00" height="8.00"></image></pattern></defs><g transform="matrix(1.00, 0.00, -0.00, -1.00, 0.0, 540.0)"><path d="M 0.0 540.0 L 720.0 540.0 L 720.0 0.0 L 0.0 0.0 Z M 0.0 540.0 " fill="#FFFFFF"></path><path d="M 39.3 71.5 L 428.3 -1.0 L 328.2 -1.0 L 39.4 71.9 " fill="#9DCADC" fill-opacity="0.40"></path><path d="M 38.2 72.4 L 328.8 -1.0 L 267.7 -1.0 L 38.9 71.9 " fill="#000000"></path><g><clipPath id="clip0x7f99acf44570"><path d="M 0.0 -1.0 L 267.4 -1.0 L 0.0 84.0 Z M -0.5 -1.1 "></path></clipPath><g clip-path="url(#clip0x7f99acf44570)"><path d="M 0.0 0.0 L 267.4 0.0 L 267.4 84.0 L 0.0 84.0 Z M 0.0 0.0 " fill="url(#C84604C9-24AE-4F3B-884C-1D82F9577517)"></path></g></g><path d="M 0.0 0.0 L 281.4 0.0 " fill="none" stroke="#5699AD" stroke-width="0.95" transform="matrix(0.95, -0.30, -0.30, -0.95, -0.7, 84.3)"></path></g></svg>