<?xml version="1.0" encoding="UTF-8" standalone="no"?><svg xmlns="http://www.w3.org/2000/svg" xmlns:xlink="http://www.w3.org/1999/xlink" clip-rule="evenodd" stroke-miterlimit="10" viewBox="0 0 720 540"><desc>SVG generated by Keynote</desc><defs><pattern id="B76F8633-2232-4F75-A9DC-9F8CE1267AEF" patternUnits="userSpaceOnUse" width="8" height="8" viewBox="0 0 8 8"><image xlink:href="../../A4F4CFCC-0D9D-48B7-BD2E-F5A229841EA0/assets/B49BA0EE4CCF2F1924B9B528E7DE74AC.png" width="8.00" height="8.00"></image></pattern></defs><g transform="matrix(1.00, 0.00, -0.00, -1.00, 0.0, 540.0)"><path d="M 0.0 540.0 L 720.0 540.0 L 720.0 0.0 L 0.0 0.0 Z M 0.0 540.0 " fill="#FFFFFF"></path><path d="M 39.3 71.5 L 428.3 -1.0 L 328.2 -1.0 L 39.4 71.9 " fill="#9DCADC" fill-opacity="0.40"></path><path d="M 38.2 72.4 L 328.8 -1.0 L 267.7 -1.0 L 38.9 71.9 " fill="#000000"></path><g><clipPath id="clip0x7f99acfc7360"><path d="M 0.0 -1.0 L 267.4 -1.0 L 0.0 84.0 Z M -0.5 -1.1 "></path></clipPath><g clip-path="url(#clip0x7f99acfc7360)"><path d="M 0.0 0.0 L 267.4 0.0 L 267.4 84.0 L 0.0 84.0 Z M 0.0 0.0 " fill="url(#B76F8633-2232-4F75-A9DC-9F8CE1267AEF)"></path></g></g><path d="M 0.0 0.0 L 281.4 0.0 " fill="none" stroke="#5699AD" stroke-width="0.95" transform="matrix(0.95, -0.30, -0.30, -0.95, -0.7, 84.3)"></path><image xlink:href="../../BAC3D23F-4898-4153-93D0-EF46E8CFEE57/assets/4EB3983EB587FA76EEB04D45AE20F418.jpeg" width="249.00" height="253.00" transform="matrix(1.25, 0.00, -0.00, -1.25, 20.0, 519.0)"></image><g><clipPath id="clip0x7f99acef64e0"><path d="M 477.6 224.6 L 663.3 175.7 L 614.5 -9.9 L 428.8 38.9 Z M 477.6 224.6 "></path></clipPath><g clip-path="url(#clip0x7f99acef64e0)"><image xlink:href="../../68422336-31EC-413E-8313-B78DB4F06155/assets/BAA8621C2D423B94E7B5C180924F12D1.png" width="256.00" height="256.00" transform="matrix(0.73, -0.19, -0.19, -0.73, 477.6, 224.6)"></image></g></g><g><clipPath id="clip0x7f99acef8f90"><path d="M 445.0 151.7 L 523.7 151.7 L 523.7 260.1 L 445.0 260.1 Z M 445.0 151.7 "></path></clipPath><g clip-path="url(#clip0x7f99acef8f90)"><image xlink:href="../../68422336-31EC-413E-8313-B78DB4F06155/assets/72C2C58C3E6EFC194323B67DE3291D3C.jpeg" width="53.00" height="73.00" transform="matrix(1.49, 0.00, -0.00, -1.48, 445.0, 260.0)"></image></g></g></g></svg>